<?xml version="1.0" ?><svg id="Layer_1" style="enable-background:new 0 0 512 512;" version="1.1" viewBox="0 0 512 512" xml:space="preserve" xmlns="http://www.w3.org/2000/svg" xmlns:xlink="http://www.w3.org/1999/xlink"><g id="XMLID_307_"><g id="XMLID_309_"><path d="M68.8,167.4v322.4h77.9V167.4H68.8z M144.7,474.8H70.8v-7h73.9V474.8z M144.7,457H70.8v-7h73.9V457z     M144.7,439.1H70.8v-7h73.9V439.1z M144.7,421.3H70.8v-7h73.9V421.3z M144.7,403.5H70.8v-7h73.9V403.5z M144.7,385.6H70.8v-7h73.9    V385.6z M144.7,367.8H70.8v-7h73.9V367.8z M144.7,350H70.8v-7h73.9V350z M144.7,332.1H70.8v-7h73.9V332.1z M144.7,314.3H70.8v-7    h73.9V314.3z M144.7,296.5H70.8v-7h73.9V296.5z M144.7,278.6H70.8v-7h73.9V278.6z M144.7,260.8H70.8v-7h73.9V260.8z M144.7,243    H70.8v-7h73.9V243z M144.7,225.1H70.8v-7h73.9V225.1z M144.7,207.3H70.8v-7h73.9V207.3z M144.7,189.5H70.8v-7h73.9V189.5z" id="XMLID_432_"/><path d="M365.3,167.4v322.4h77.9V167.4H365.3z M441.2,474.8h-73.9v-7h73.9V474.8z M441.2,457h-73.9v-7h73.9V457z     M441.2,439.1h-73.9v-7h73.9V439.1z M441.2,421.3h-73.9v-7h73.9V421.3z M441.2,403.5h-73.9v-7h73.9V403.5z M441.2,385.6h-73.9v-7    h73.9V385.6z M441.2,367.8h-73.9v-7h73.9V367.8z M441.2,350h-73.9v-7h73.9V350z M441.2,332.1h-73.9v-7h73.9V332.1z M441.2,314.3    h-73.9v-7h73.9V314.3z M441.2,296.5h-73.9v-7h73.9V296.5z M441.2,278.6h-73.9v-7h73.9V278.6z M441.2,260.8h-73.9v-7h73.9V260.8z     M441.2,243h-73.9v-7h73.9V243z M441.2,225.1h-73.9v-7h73.9V225.1z M441.2,207.3h-73.9v-7h73.9V207.3z M441.2,189.5h-73.9v-7h73.9    V189.5z" id="XMLID_413_"/><g id="XMLID_360_"><rect height="22.8" id="XMLID_412_" width="27.1" x="274.5" y="329.6"/><rect height="22.8" id="XMLID_411_" width="27.1" x="306.1" y="382.7"/><rect height="22.8" id="XMLID_410_" width="27.1" x="243" y="329.6"/><rect height="22.8" id="XMLID_409_" width="27.1" x="274.5" y="356.2"/><rect height="22.8" id="XMLID_408_" width="27.1" x="211.4" y="329.6"/><rect height="22.8" id="XMLID_407_" width="27.1" x="306.1" y="356.2"/><rect height="22.8" id="XMLID_406_" width="27.1" x="179.9" y="409.2"/><rect height="21.2" id="XMLID_405_" width="27.1" x="179.9" y="462.3"/><rect height="22.8" id="XMLID_404_" width="27.1" x="179.9" y="435.7"/><rect height="22.8" id="XMLID_403_" width="21.8" x="153.7" y="435.7"/><rect height="22.8" id="XMLID_402_" width="27.1" x="179.9" y="356.2"/><rect height="22.8" id="XMLID_401_" width="27.1" x="179.9" y="382.7"/><rect height="22.8" id="XMLID_400_" width="27.1" x="211.4" y="356.2"/><rect height="22.8" id="XMLID_399_" width="27.1" x="274.5" y="382.7"/><rect height="22.8" id="XMLID_398_" width="27.1" x="306.1" y="409.2"/><rect height="22.8" id="XMLID_397_" width="27.1" x="243" y="409.2"/><rect height="22.8" id="XMLID_396_" width="27.1" x="211.4" y="382.7"/><rect height="22.8" id="XMLID_395_" width="21.8" x="153.7" y="409.2"/><rect height="22.8" id="XMLID_394_" width="27.1" x="243" y="382.7"/><rect height="22.8" id="XMLID_393_" width="27.1" x="243" y="356.2"/><rect height="22.8" id="XMLID_392_" width="27.1" x="274.5" y="409.2"/><rect height="22.8" id="XMLID_391_" width="27.1" x="211.4" y="409.2"/><rect height="22.8" id="XMLID_390_" width="27.1" x="274.5" y="435.7"/><rect height="22.8" id="XMLID_389_" width="27.1" x="211.4" y="435.7"/><rect height="22.8" id="XMLID_388_" width="27.1" x="243" y="435.7"/><rect height="23.2" id="XMLID_387_" width="27.1" x="179.9" y="302.7"/><rect height="22.8" id="XMLID_386_" width="21.8" x="153.7" y="329.6"/><rect height="22.8" id="XMLID_385_" width="21.8" x="153.7" y="356.2"/><rect height="22.8" id="XMLID_384_" width="21.8" x="153.7" y="382.7"/><rect height="22.8" id="XMLID_383_" width="27.1" x="179.9" y="329.6"/><rect height="23.2" id="XMLID_382_" width="27.1" x="243" y="302.7"/><rect height="23.2" id="XMLID_381_" width="27.1" x="211.4" y="302.7"/><rect height="21.2" id="XMLID_380_" width="20.8" x="337.6" y="462.3"/><rect height="23.2" id="XMLID_379_" width="21.8" x="153.7" y="302.7"/><rect height="21.2" id="XMLID_378_" width="27.1" x="211.4" y="462.3"/><rect height="23.2" id="XMLID_377_" width="27.1" x="274.5" y="302.7"/><rect height="23.2" id="XMLID_376_" width="20.8" x="337.6" y="302.7"/><path d="M146.8,296.4v193.4h218.6V296.4H146.8z M361.9,487H150.2V299.2h211.7V487z" id="XMLID_373_"/><rect height="21.2" id="XMLID_372_" width="21.8" x="153.7" y="462.3"/><rect height="22.8" id="XMLID_371_" width="27.1" x="306.1" y="435.7"/><rect height="22.8" id="XMLID_370_" width="20.8" x="337.6" y="435.7"/><rect height="21.2" id="XMLID_369_" width="27.1" x="306.1" y="462.3"/><rect height="21.2" id="XMLID_368_" width="27.1" x="243" y="462.3"/><rect height="23.2" id="XMLID_367_" width="27.1" x="306.1" y="302.7"/><rect height="21.2" id="XMLID_366_" width="27.1" x="274.5" y="462.3"/><rect height="22.8" id="XMLID_365_" width="27.1" x="306.1" y="329.6"/><rect height="22.8" id="XMLID_364_" width="20.8" x="337.6" y="329.6"/><rect height="22.8" id="XMLID_363_" width="20.8" x="337.6" y="409.2"/><rect height="22.8" id="XMLID_362_" width="20.8" x="337.6" y="356.2"/><rect height="22.8" id="XMLID_361_" width="20.8" x="337.6" y="382.7"/></g><path d="M147.6,167.4v128.8h86.3V167.4H147.6z M152.3,173.9c0-1.3,1-2.3,2.3-2.3h29.6c1.3,0,2.3,1,2.3,2.3v32.3    c0,1.3-1,2.3-2.3,2.3h-29.6c-1.3,0-2.3-1-2.3-2.3V173.9z M152.6,215.7c0-1.3,1-2.3,2.3-2.3h29.6c1.3,0,2.3,1,2.3,2.3V248    c0,1.3-1,2.3-2.3,2.3h-29.6c-1.3,0-2.3-1-2.3-2.3V215.7z M187.1,289.7c0,1.3-1,2.3-2.3,2.3h-29.6c-1.3,0-2.3-1-2.3-2.3v-32.3    c0-1.3,1-2.3,2.3-2.3h29.6c1.3,0,2.3,1,2.3,2.3V289.7z M193.9,173.9c0-1.3,1-2.3,2.3-2.3h29.6c1.3,0,2.3,1,2.3,2.3v32.3    c0,1.3-1,2.3-2.3,2.3h-29.6c-1.3,0-2.3-1-2.3-2.3V173.9z M194.3,215.7c0-1.3,1-2.3,2.3-2.3h29.6c1.3,0,2.3,1,2.3,2.3V248    c0,1.3-1,2.3-2.3,2.3h-29.6c-1.3,0-2.3-1-2.3-2.3V215.7z M228.8,289.7c0,1.3-1,2.3-2.3,2.3h-29.6c-1.3,0-2.3-1-2.3-2.3v-32.3    c0-1.3,1-2.3,2.3-2.3h29.6c1.3,0,2.3,1,2.3,2.3V289.7z" id="XMLID_352_"/><path d="M278.1,167.4v128.8h86.3V167.4H278.1z M283.1,174.1c0-1.3,1-2.3,2.3-2.3H315c1.3,0,2.3,1,2.3,2.3v32.3    c0,1.3-1,2.3-2.3,2.3h-29.6c-1.3,0-2.3-1-2.3-2.3V174.1z M283.5,215.8c0-1.3,1-2.3,2.3-2.3h29.6c1.3,0,2.3,1,2.3,2.3v32.3    c0,1.3-1,2.3-2.3,2.3h-29.6c-1.3,0-2.3-1-2.3-2.3V215.8z M318,289.9c0,1.3-1,2.3-2.3,2.3h-29.6c-1.3,0-2.3-1-2.3-2.3v-32.3    c0-1.3,1-2.3,2.3-2.3h29.6c1.3,0,2.3,1,2.3,2.3V289.9z M324.8,174.1c0-1.3,1-2.3,2.3-2.3h29.6c1.3,0,2.3,1,2.3,2.3v32.3    c0,1.3-1,2.3-2.3,2.3h-29.6c-1.3,0-2.3-1-2.3-2.3V174.1z M325.1,215.8c0-1.3,1-2.3,2.3-2.3H357c1.3,0,2.3,1,2.3,2.3v32.3    c0,1.3-1,2.3-2.3,2.3h-29.6c-1.3,0-2.3-1-2.3-2.3V215.8z M359.7,289.9c0,1.3-1,2.3-2.3,2.3h-29.6c-1.3,0-2.3-1-2.3-2.3v-32.3    c0-1.3,1-2.3,2.3-2.3h29.6c1.3,0,2.3,1,2.3,2.3V289.9z" id="XMLID_344_"/><g id="XMLID_323_"><rect height="11.2" id="XMLID_343_" width="18.5" x="235" y="252.6"/><rect height="11.2" id="XMLID_342_" width="18.5" x="235" y="172"/><rect height="10.9" id="XMLID_341_" width="18.5" x="235" y="239.1"/><rect height="11.5" id="XMLID_340_" width="18.5" x="235" y="266.3"/><rect height="10.8" id="XMLID_339_" width="18.5" x="235" y="280.4"/><rect height="2.5" id="XMLID_338_" width="41.9" x="235" y="293.8"/><rect height="10.6" id="XMLID_337_" width="18.5" x="235" y="185.8"/><rect height="10.9" id="XMLID_336_" width="18.5" x="235" y="198.9"/><rect height="10.8" id="XMLID_335_" width="18.5" x="235" y="225.8"/><rect height="10.9" id="XMLID_334_" width="18.5" x="235" y="212.4"/><rect height="10.9" id="XMLID_333_" width="20.9" x="256.1" y="239.1"/><rect height="11.2" id="XMLID_332_" width="20.9" x="256.1" y="172"/><rect height="10.9" id="XMLID_331_" width="20.9" x="256.1" y="198.9"/><rect height="10.6" id="XMLID_330_" width="20.9" x="256.1" y="185.8"/><rect height="2" id="XMLID_329_" width="41.9" x="235" y="167.4"/><rect height="11.5" id="XMLID_328_" width="20.9" x="256.1" y="266.3"/><rect height="10.8" id="XMLID_327_" width="20.9" x="256.1" y="280.4"/><rect height="10.9" id="XMLID_326_" width="20.9" x="256.1" y="212.4"/><rect height="11.2" id="XMLID_325_" width="20.9" x="256.1" y="252.6"/><rect height="10.8" id="XMLID_324_" width="20.9" x="256.1" y="225.8"/></g><polygon id="XMLID_322_" points="144.7,79.3 144.7,86.6 359.7,20.6 357,14.6   "/><polygon id="XMLID_321_" points="144.7,69.6 144.7,76.9 356.1,12 353.4,6   "/><g id="XMLID_312_"><path d="M231.8,101.5c-2.3,0-4.1,0.8-5.4,2.5c-1.3,1.7-2,3.8-2,6.5v5.1c0,2.7,0.7,4.8,2,6.5     c1.3,1.7,3.1,2.5,5.4,2.5c2.4,0,4.3-0.8,5.7-2.5c1.4-1.7,2.1-3.8,2.1-6.5v-5.1c0-2.6-0.7-4.8-2.1-6.5     C236.1,102.3,234.2,101.5,231.8,101.5z" id="XMLID_320_"/><path d="M145.2,89.8l2.9,76.6h212.1V23.8L145.2,89.8z M215,127.4h-3.9v-12.7h-13.9v12.7h-3.9V98.7h3.9v13h13.9     v-13h3.9V127.4z M243.6,115.6c0,3.5-1.1,6.4-3.3,8.7c-2.2,2.3-5,3.5-8.5,3.5c-3.3,0-6.1-1.2-8.2-3.5c-2.1-2.3-3.1-5.2-3.1-8.7     v-5.1c0-3.5,1-6.4,3.1-8.7c2.1-2.3,4.8-3.5,8.2-3.5c3.5,0,6.3,1.2,8.5,3.5c2.2,2.3,3.3,5.2,3.3,8.7V115.6z M268.1,101.7h-9.5     v25.6h-3.9v-25.6h-9.3v-3.1h22.7V101.7z M289.7,127.4h-17.7V98.7h17.5v3.1h-13.6v9.3h11.8v3.1h-11.8v10.3h13.8V127.4z      M312.1,127.4h-17.9V98.7h3.9v25.6h14V127.4z" id="XMLID_313_"/></g><polygon id="XMLID_311_" points="146.7,166.4 68.8,166.3 107.3,117.1   "/><polygon id="XMLID_310_" points="443.2,166.5 365.3,166.4 404.4,117.2   "/></g><rect height="11.1" id="XMLID_308_" width="392.9" x="59.5" y="494.9"/></g></svg>